<svg t="1672987694726" class="icon" viewBox="0 0 1024 1024" version="1.1" xmlns="http://www.w3.org/2000/svg" p-id="12877" width="32" height="32"><path d="M832 0h-640A192 192 0 0 0 0 192v640A192 192 0 0 0 192 1024h640a192 192 0 0 0 192-192v-640A192 192 0 0 0 832 0zM947.2 832a115.456 115.456 0 0 1-115.2 115.2h-640A115.456 115.456 0 0 1 76.8 832V554.24l126.464-117.248A25.6 25.6 0 0 1 236.8 435.2l296.192 236.8a102.4 102.4 0 0 0 136.192-6.4l70.4-70.4a25.6 25.6 0 0 1 35.072 0l172.544 153.6z m0-186.88L825.856 537.6a102.4 102.4 0 0 0-140.544 3.84L614.4 610.816a25.6 25.6 0 0 1-34.048 1.792l-295.68-237.056a102.4 102.4 0 0 0-133.632 5.12L76.8 449.536V192A115.456 115.456 0 0 1 192 76.8h640A115.456 115.456 0 0 1 947.2 192z" fill="#E64290" p-id="12878"></path><path d="M742.4 158.464A123.136 123.136 0 1 0 865.536 281.6 123.392 123.392 0 0 0 742.4 158.464z m0 179.2A56.064 56.064 0 1 1 798.464 281.6 56.064 56.064 0 0 1 742.4 337.664z" fill="#E64290" p-id="12879"></path></svg>