<svg t="1660203487708" class="icon" viewBox="0 0 1024 1024" version="1.1" xmlns="http://www.w3.org/2000/svg" p-id="7176" width="32" height="32"><path d="M768.000512 495.104a128 128 0 1 0 128-128 128 128 0 0 0-128 128z m0 0" p-id="7177" fill="#F56C6C"></path><path d="M335.872512 128a96 96 0 1 0 96-96A96 96 0 0 0 335.872512 128z m0 0M0.000512 544.256a79.872 79.872 0 1 0 79.872-80.128A79.872 79.872 0 0 0 0.000512 544.256z m0 0" p-id="7178" fill="#F56C6C"></path><path d="M352.000512 864a64 64 0 1 0 64 63.744 64 64 0 0 0-64-63.744z m501.248 53.76a144.128 144.128 0 1 1 0-204.8 143.36 143.36 0 0 1 0 204.8z m-23.808-626.944a114.432 114.432 0 0 1-80.384 33.28 112.64 112.64 0 0 1-80.384-33.28 113.664 113.664 0 0 1 0-161.024 113.664 113.664 0 0 1 160.768 0 113.664 113.664 0 0 1 0 161.024zM246.528512 326.912a88.064 88.064 0 1 1 0-124.672 88.064 88.064 0 0 1 0 124.672zM218.880512 826.88a72.704 72.704 0 0 1-51.2 20.992 71.936 71.936 0 0 1 0-143.872 72.192 72.192 0 0 1 51.2 122.88z m0 0" p-id="7179" fill="#F56C6C"></path></svg>